# xmcd
#
# Track frame offsets:
#	183
#	67325
#	94123
#	129288
#	149305
#	162868
#	177925
#	203810
#	221980
#	237170
#
# Disc length: 3298 seconds
#
# Revision: 1
# Processed by: cddbd v1.4PL0 Copyright (c) Steve Scherf et al.
# Submitted via: EasyCDDAExtractor 5.1.0
#
DISCID=950ce00a
DTITLE=compilation disc - Yiassou Ellada (Hello Greece)
DYEAR=1900
DGENRE=Country
TTITLE0=Aponi Zoi
TTITLE1=Gorgona
TTITLE2=Giorti Zeibekidon
TTITLE3=Min Kles
TTITLE4=Epissimi Agapimeni
TTITLE5=I Fantasia
TTITLE6=Pou Ise Kaimene Perikli
TTITLE7=Ama Thes Na Klapsis
TTITLE8=An Imoun Plousios
TTITLE9=O Dromos
EXTD=
EXTT0=
EXTT1=
EXTT2=
EXTT3=
EXTT4=
EXTT5=
EXTT6=
EXTT7=
EXTT8=
EXTT9=
PLAYORDER=
